 <svg  version="1.0" xmlns="http://www.w3.org/2000/svg"  width="300.000000pt" height="300.000000pt" viewBox="0 0 300.000000 300.000000"  preserveAspectRatio="xMidYMid meet">  <g transform="translate(0.000000,300.000000) scale(0.050000,-0.050000)" fill="#ffffff" stroke="none"> <path d="M1150 5695 c-46 -149 -55 -216 -56 -411 -1 -214 37 -455 61 -388 5 15 59 66 120 114 l111 87 2 190 c1 104 8 195 15 203 20 19 151 -42 240 -113 l80 -63 144 73 c79 41 161 74 183 74 149 0 -309 255 -625 347 l-221 65 -54 -178z"/> <path d="M3840 5802 c-291 -80 -779 -362 -627 -362 18 0 99 -32 180 -71 l148 -71 84 67 c84 65 216 135 258 135 14 0 19 -73 15 -215 l-7 -215 114 -107 c133 -125 124 -132 185 146 41 181 28 291 -64 571 -60 184 -60 184 -286 122z"/> <path d="M2400 5326 c-311 -53 -537 -138 -748 -283 -232 -158 -709 -672 -665 -716 6 -7 86 19 177 58 836 355 1336 -6 1336 -965 0 -76 10 -142 24 -156 26 -26 174 -33 179 -9 2 8 5 101 7 206 19 958 523 1299 1354 916 164 -76 178 -68 105 57 -351 602 -1139 1000 -1769 892z"/> <path d="M4528 5125 c283 -1277 -423 -2538 -1552 -2776 -840 -177 -1636 429 -1636 1243 0 128 -8 134 -297 208 -89 24 -218 65 -286 93 l-124 50 -36 -46 c-50 -65 -197 -447 -226 -587 -2 -11 -16 -74 -32 -140 -111 -482 -10 -1227 232 -1710 681 -1363 2470 -1850 3859 -1050 403 232 869 788 1080 1290 471 1119 186 2377 -745 3285 -210 205 -258 234 -237 140z m445 -860 c395 -646 540 -1243 439 -1815 -116 -657 -725 -1422 -1238 -1556 -192 -51 -167 18 76 201 476 361 913 1042 817 1274 -63 155 -84 142 -292 -191 -331 -526 -819 -867 -1355 -946 l-90 -14 80 73 c44 40 184 134 310 210 451 269 831 663 983 1019 136 318 19 323 -256 11 -351 -399 -926 -719 -1342 -747 -202 -13 -188 17 65 135 736 345 1263 890 1509 1561 14 39 46 124 71 190 96 252 106 304 108 545 2 221 9 224 115 50z"/> <path d="M1650 4300 c-51 -83 290 -320 461 -320 147 0 37 201 -161 293 -104 48 -277 64 -300 27z"/> <path d="M3245 4269 c-118 -59 -225 -175 -225 -244 0 -107 354 10 501 166 111 118 -85 174 -276 78z"/> <path d="M1004 4109 l6 -115 133 -36 c461 -126 723 -348 944 -799 155 -316 241 -418 393 -469 272 -90 485 50 613 404 165 454 606 811 1062 860 l106 12 -12 102 c-19 160 -18 159 -121 145 -582 -80 -1044 -487 -1322 -1165 l-41 -102 -136 6 c-162 8 -138 -15 -284 268 -323 627 -674 905 -1251 991 l-96 14 6 -116z"/> </g> </svg> 